Walking07_kinetics.mot
version=1
nRows=36
nColumns=19
inDegrees=yes
endheader
time	1_ground_force_vx	1_ground_force_vy	1_ground_force_vz	1_ground_force_px	1_ground_force_py	1_ground_force_pz	2_ground_force_vx	2_ground_force_vy	2_ground_force_vz	2_ground_force_px	2_ground_force_py	2_ground_force_pz	1_ground_torque_x	1_ground_torque_y	1_ground_torque_z	2_ground_torque_x	2_ground_torque_y	2_ground_torque_z
  0.49000000	191.63898745	556.25040134	 -7.50378263	 -0.22873958	 -0.00055434	  0.14006052	-87.15283145	401.56542558	 -2.96007330	  0.31933722	  0.00249700	  0.06017336	  0.00233157	  1.80125748	 -0.00114669	 -0.00061075	  0.46865633	 -0.00001548
  0.49100000	190.92361659	547.46740341	 -6.81462165	 -0.22853914	 -0.00055470	  0.13990210	-91.65330269	405.61777892	 -3.48295494	  0.32004766	  0.00249791	  0.05973024	  0.00227598	  1.75831047	 -0.00111935	 -0.00069492	  0.53324445	 -0.00001762
  0.49200000	190.06047900	538.38860041	 -6.10771926	 -0.22832600	 -0.00055508	  0.13973930	-96.00084594	410.20662420	 -4.08405443	  0.32071050	  0.00249876	  0.05929726	  0.00221897	  1.71427128	 -0.00109131	 -0.00077016	  0.59097400	 -0.00001953
  0.49300000	189.05202226	529.06469485	 -5.39183170	 -0.22810232	 -0.00055548	  0.13957465	-100.15448749	415.56226140	 -4.76739094	  0.32132742	  0.00249955	  0.05888784	  0.00216206	  1.67030283	 -0.00106332	 -0.00083336	  0.63947524	 -0.00002113
  0.49400000	187.90551722	519.55924600	 -4.67731001	 -0.22787179	 -0.00055588	  0.13941320	-104.06402174	421.68728403	 -5.52663605	  0.32190034	  0.00250029	  0.05851784	  0.00210670	  1.62753234	 -0.00103609	 -0.00088335	  0.67783513	 -0.00002240
  0.49500000	186.63134595	509.94054455	 -3.97576050	 -0.22763901	 -0.00055627	  0.13926221	-107.67458495	428.41214421	 -6.34428605	  0.32243135	  0.00250097	  0.05820148	  0.00205366	  1.58655823	 -0.00101001	 -0.00092006	  0.70599894	 -0.00002333
  0.49600000	185.24021610	500.26776104	 -3.29789091	 -0.22740850	 -0.00055666	  0.13912947	-110.93121906	435.47624640	 -7.19264609	  0.32292235	  0.00250160	  0.05794169	  0.00200268	  1.54717586	 -0.00098494	 -0.00094332	  0.72385349	 -0.00002392
  0.49700000	183.74052331	490.58154469	 -2.65141480	 -0.22718383	 -0.00055702	  0.13902193	-113.78261271	442.59305176	 -8.03683991	  0.32337483	  0.00250218	  0.05772657	  0.00195249	  1.50840127	 -0.00096025	 -0.00095239	  0.73080983	 -0.00002415
  0.49800000	182.13669259	480.90547143	 -2.04033830	 -0.22696730	 -0.00055735	  0.13894520	-116.18357674	449.47286520	 -8.83973630	  0.32378978	  0.00250272	  0.05753912	  0.00190127	  1.46882841	 -0.00093506	 -0.00094661	  0.72637236	 -0.00002400
  0.49900000	180.42809762	471.25131852	 -1.46500508	 -0.22675950	 -0.00055764	  0.13890335	-118.09746897	455.82864796	 -9.56721254	  0.32416789	  0.00250320	  0.05737024	  0.00184733	  1.42716087	 -0.00090854	 -0.00092659	  0.71101594	 -0.00002349
  0.50000000	178.60779392	461.61741863	 -0.92174306	 -0.22655849	 -0.00055791	  0.13889763	-119.50010820	461.40480075	-10.19180340	  0.32450968	  0.00250364	  0.05722020	  0.00178980	  1.38271330	 -0.00088024	 -0.00089446	  0.68636054	 -0.00002268
  0.50100000	176.66139899	451.98079905	 -0.40228389	 -0.22635850	 -0.00055815	  0.13892449	-120.38462456	466.02823146	-10.69441982	  0.32481582	  0.00250404	  0.05708861	  0.00172902	  1.33575547	 -0.00085035	 -0.00085304	  0.65457681	 -0.00002163
  0.50200000	174.56788341	442.29606306	  0.10537183	 -0.22614985	 -0.00055839	  0.13897519	-120.76378431	469.63762464	-11.06489655	  0.32508753	  0.00250439	  0.05696723	  0.00166657	  1.28751243	 -0.00081963	 -0.00080516	  0.61783505	 -0.00002041
  0.50300000	172.30317436	432.50901543	  0.61371483	 -0.22592084	 -0.00055864	  0.13903820	-120.66745002	472.26166910	-11.30183873	  0.32532732	  0.00250470	  0.05684499	  0.00160472	  1.23972596	 -0.00078921	 -0.00075369	  0.57833799	 -0.00001911
  0.50400000	169.84438108	422.57507315	  1.13195019	 -0.22566023	 -0.00055894	  0.13910277	-120.13778942	473.97277413	-11.41165386	  0.32553933	  0.00250497	  0.05671795	  0.00154559	  1.19404885	 -0.00076014	 -0.00070184	  0.53855660	 -0.00001779
  0.50500000	167.17156315	412.46746379	  1.66428957	 -0.22535856	 -0.00055929	  0.13916037	-119.22596986	474.85760664	-11.40636238	  0.32572889	  0.00250521	  0.05659166	  0.00149069	  1.15163737	 -0.00073314	 -0.00065293	  0.50101873	 -0.00001655
  0.50600000	164.26682401	402.17348496	  2.21064768	 -0.22500792	 -0.00055972	  0.13920402	-117.99096593	475.01243385	-11.30053780	  0.32590111	  0.00250543	  0.05647478	  0.00144075	  1.11305272	 -0.00070857	 -0.00060944	  0.46764702	 -0.00001545
  0.50700000	161.11299328	391.68831262	  2.76821034	 -0.22460087	 -0.00056023	  0.13922682	-116.49892254	474.54646926	-11.10888374	  0.32605995	  0.00250564	  0.05637212	  0.00139596	  1.07844959	 -0.00068654	 -0.00057250	  0.43930277	 -0.00001451
  0.50800000	157.69350475	381.01340848	  3.33268222	 -0.22412936	 -0.00056084	  0.13922109	-114.82179967	473.57994231	-10.84538887	  0.32620825	  0.00250583	  0.05628327	  0.00135652	  1.04798010	 -0.00066715	 -0.00054213	  0.41599957	 -0.00001374
  0.50900000	153.99310079	370.15864963	  3.89906174	 -0.22358411	 -0.00056158	  0.13917854	-113.03545753	472.23636258	-10.52314882	  0.32634853	  0.00250601	  0.05620557	  0.00132307	  1.02214058	 -0.00065070	 -0.00051807	  0.39754048	 -0.00001313
  0.51000000	149.99834335	359.14490030	  4.46211701	 -0.22295483	 -0.00056245	  0.13909178	-111.21764150	470.63200722	-10.15340006	  0.32648388	  0.00250618	  0.05613764	  0.00129666	  1.00173593	 -0.00063771	 -0.00050061	  0.38414039	 -0.00001269
  0.51100000	145.69775802	348.00543290	  5.01664577	 -0.22223132	 -0.00056347	  0.13895643	-109.44581427	468.86628133	 -9.74372201	  0.32661868	  0.00250636	  0.05608202	  0.00127819	  0.98746934	 -0.00062863	 -0.00049106	  0.37681181	 -0.00001245
  0.51200000	141.08200438	336.78476373	  5.55755989	 -0.22140492	 -0.00056466	  0.13877220	-107.79474397	467.02173937	 -9.29682383	  0.32675901	  0.00250654	  0.05604496	  0.00126789	  0.97950926	 -0.00062356	 -0.00049167	  0.37728325	 -0.00001247
  0.51300000	136.14442134	325.53432950	  6.07981990	 -0.22046969	 -0.00056601	  0.13854149	-106.33389283	465.17830609	 -8.81089864	  0.32691286	  0.00250674	  0.05603258	  0.00126503	  0.97730095	 -0.00062215	 -0.00050481	  0.38736109	 -0.00001280
  0.51400000	130.88242865	314.30787775	  6.57822819	 -0.21942351	 -0.00056754	  0.13826746	-105.12507168	463.43083078	 -8.28093922	  0.32709025	  0.00250697	  0.05604670	  0.00126798	  0.97958211	 -0.00062361	 -0.00053193	  0.40817163	 -0.00001349
  0.51500000	125.30021403	303.16033419	  7.04707413	 -0.21826936	 -0.00056924	  0.13795371	-104.22099367	461.89478662	 -7.69998025	  0.32730355	  0.00250725	  0.05608448	  0.00127432	  0.98448101	 -0.00062672	 -0.00057323	  0.43986513	 -0.00001453
  0.51600000	119.41249581	292.14971992	  7.47987419	 -0.21701658	 -0.00057108	  0.13760594	-103.66469733	460.69861799	 -7.06005763	  0.32756772	  0.00250759	  0.05614171	  0.00128104	  0.98967234	 -0.00063003	 -0.00062787	  0.48179397	 -0.00001592
  0.51700000	113.24827612	281.33744857	  7.86990643	 -0.21568235	 -0.00057304	  0.13723336	-103.48954488	459.97406292	 -6.35325254	  0.32789946	  0.00250803	  0.05621473	  0.00128487	  0.99262999	 -0.00063191	 -0.00069412	  0.53262824	 -0.00001760
  0.51800000	106.85369693	270.78409214	  8.21180362	 -0.21429279	 -0.00057509	  0.13684870	-103.71957596	459.85233652	 -5.57303521	  0.32831463	  0.00250857	  0.05629788	  0.00128274	  0.99098590	 -0.00063087	 -0.00076897	  0.59006565	 -0.00001950
  0.51900000	100.29428334	260.54378031	  8.50297532	 -0.21288262	 -0.00057716	  0.13646707	-104.36970634	460.46229156	 -4.71563523	  0.32882504	  0.00250924	  0.05637951	  0.00127226	  0.98288744	 -0.00062571	 -0.00084765	  0.65043600	 -0.00002149
  0.52000000	 93.65701248	250.66218143	  8.74318290	 -0.21149190	 -0.00057919	  0.13610491	-105.44533590	461.92331216	 -3.78099660	  0.32943605	  0.00251004	  0.05644136	  0.00125197	  0.96721233	 -0.00061573	 -0.00092357	  0.70869528	 -0.00002342
  0.52100000	 87.05105367	241.17735477	  8.93231725	 -0.21016007	 -0.00058112	  0.13577900	-106.94169143	464.33249150	 -2.77307041	  0.33014566	  0.00251096	  0.05646200	  0.00122146	  0.94363751	 -0.00060072	 -0.00098902	  0.75891651	 -0.00002507
  0.52200000	 80.60372495	232.11677767	  9.06818741	 -0.20891949	 -0.00058290	  0.13550499	-108.84441922	467.75289689	 -1.69911831	  0.33094518	  0.00251200	  0.05642112	  0.00118138	  0.91267999	 -0.00058102	 -0.00103614	  0.79507897	 -0.00002627
  0.52300000	 74.44918882	223.48688330	  9.14573563	 -0.20779029	 -0.00058449	  0.13529490	-111.13237751	472.20797223	 -0.56792423	  0.33182179	  0.00251314	  0.05630247	  0.00113359	  0.87575501	 -0.00055751	 -0.00105816	  0.81197105	 -0.00002683
  0.52400000	 68.71180621	215.26155174	  9.15772119	 -0.20677669	 -0.00058589	  0.13515450	-113.78093391	477.67957336	  0.61220020	  0.33276192	  0.00251436	  0.05609601	  0.00108095	  0.83508668	 -0.00053162	 -0.00105043	  0.80604219	 -0.00002663
  0.52500000	 63.48715287	207.37910988	  9.09653828	 -0.20586443	 -0.00058712	  0.13508141	-116.76348755	484.10548989	  1.83449219	  0.33375436	  0.00251565	  0.05580041	  0.00102677	  0.79323373	 -0.00050498	 -0.00101134	  0.77604288	 -0.00002564
